<svg width="241" height="274" viewBox="0 0 241 274" fill="none" xmlns="http://www.w3.org/2000/svg">
<path d="M103.017 0C84.1792 0 68.7667 15.4125 68.7667 34.25H34.5167C15.6792 34.25 0.266724 49.6625 0.266724 68.5H240.017C240.017 49.6625 224.604 34.25 205.767 34.25H171.517C171.517 15.4125 156.104 0 137.267 0H103.017ZM34.5167 102.75V267.492C34.5167 271.26 37.2567 274 41.0242 274H199.602C203.369 274 206.109 271.26 206.109 267.492V102.75H171.859V222.625C171.859 232.215 164.324 239.75 154.734 239.75C145.144 239.75 137.609 232.215 137.609 222.625V102.75H103.359V222.625C103.359 232.215 95.8242 239.75 86.2342 239.75C76.6442 239.75 69.1092 232.215 69.1092 222.625V102.75H34.8592H34.5167Z" fill="#FD8558"/>
</svg>
